<svg xmlns="http://www.w3.org/2000/svg" width="1142" height="612" viewBox="0 0 1142 612" fill="none"><path d="M479.131 12.821C467.483 23.2797 464.306 28.3403 462.894 40.8233C461.129 55.3305 461.835 57.0173 473.131 65.4517C485.485 74.2235 485.485 74.2236 501.369 68.8255C511.252 65.1144 519.018 59.379 522.901 53.3062C526.43 47.2334 531.372 43.8596 534.902 44.5344C544.785 46.2213 543.726 52.294 530.313 65.1144C520.077 74.8983 514.429 77.5973 504.546 77.5973C493.956 77.9347 492.897 78.2721 498.192 81.3085C509.134 87.3812 524.312 81.6458 536.667 65.7891C543.373 57.0173 551.139 50.6072 555.375 50.6072C560.669 50.6072 558.904 53.6436 546.197 66.4639C530.313 82.3206 514.782 103.913 514.782 109.985C514.782 111.672 519.371 106.274 525.018 97.8399C535.255 81.9832 546.55 71.1871 546.55 76.5852C546.55 80.6337 519.371 128.541 514.429 132.927C512.311 134.951 511.252 133.939 511.252 129.553C511.252 126.18 507.37 130.903 502.781 140.349C494.309 157.893 480.543 170.376 456.188 182.522C448.422 186.233 446.304 188.257 450.893 186.907C456.541 185.558 458.305 185.895 456.894 188.594C453.364 193.992 419.831 202.427 409.241 200.402C404.3 199.39 396.181 197.703 391.593 197.029C384.533 195.679 383.827 194.667 388.063 191.968C392.299 189.606 392.298 188.932 387.357 188.932C377.473 188.932 353.824 170.039 347.47 157.218C341.117 144.061 337.94 141.362 340.411 150.808C343.587 162.279 323.468 158.23 306.525 144.061C298.053 137.313 284.64 129.891 276.874 127.529L262.402 123.818L274.051 121.456C286.052 118.757 293.464 114.709 286.052 114.709C283.581 114.709 276.169 106.274 269.109 96.1531C261.696 86.0318 251.107 74.561 244.753 70.8498C227.81 60.7285 225.34 62.7528 241.577 72.8741C254.99 81.3085 272.286 102.226 271.58 109.648C271.227 111.335 266.285 114.371 260.284 115.721C251.813 117.745 247.577 117.07 242.636 112.685C233.811 104.925 234.164 111.672 242.989 120.782C247.224 124.83 254.284 128.204 259.226 128.204C276.874 128.204 294.523 139 322.762 166.665C347.823 191.631 353.824 196.017 371.826 200.74C416.654 213.223 460.776 200.74 498.898 164.303C516.194 147.772 525.371 134.614 540.902 105.262C551.845 84.3448 561.728 67.476 563.14 67.476C565.258 67.476 562.787 145.073 560.316 155.194C559.257 158.905 562.081 160.255 571.259 160.255C583.26 160.255 583.613 159.917 582.554 148.784C581.848 142.374 580.083 134.614 579.024 131.24C575.847 123.481 577.965 70.8498 581.495 70.8498C583.26 70.8498 588.908 80.9711 594.555 93.454C607.968 123.818 634.442 161.267 652.091 174.762C660.209 180.835 675.74 189.944 687.036 195.004C703.979 202.764 712.097 204.114 737.159 204.114C763.632 204.114 769.28 203.101 783.752 195.004C792.576 189.944 809.166 175.774 820.462 163.291C843.052 138.662 851.877 133.264 878.35 127.866C894.94 124.493 897.058 122.806 907.294 105.937C918.59 86.3691 934.121 75.9104 945.769 79.2841C951.064 80.971 952.476 84.0074 951.77 90.4175C950.711 100.201 943.298 99.8641 944.004 90.0802C944.004 86.0316 943.298 85.0195 940.474 87.7185C933.062 94.8034 943.298 102.9 960.241 102.563C972.595 102.563 978.949 100.201 990.244 91.4297C1006.83 78.6094 1024.48 77.5972 1025.19 89.4054C1026.6 106.949 1027.31 109.311 1029.07 105.262C1030.48 101.888 1032.25 102.226 1037.54 106.612C1046.72 114.371 1046.01 119.095 1036.48 114.709C1028.72 110.998 1028.72 111.335 1035.07 116.058C1038.96 119.095 1048.13 121.456 1055.55 121.456C1086.96 121.456 1110.96 143.048 1118.73 178.135C1122.61 196.691 1121.55 224.019 1116.26 237.851C1114.49 242.574 1114.85 243.587 1117.67 241.225C1119.43 239.201 1122.61 231.104 1124.38 222.669C1126.49 212.548 1129.32 207.15 1133.55 206.475C1142.03 204.788 1141.67 220.645 1132.49 232.791C1127.55 239.201 1126.14 245.273 1127.55 252.021C1129.32 259.781 1127.2 264.167 1116.96 274.963C1109.9 282.048 1104.26 289.47 1104.26 291.157C1104.26 298.916 1077.78 315.785 1074.25 310.387C1071.43 306.001 1085.55 290.145 1091.9 290.145C1098.61 290.145 1106.73 279.349 1108.49 268.215C1109.55 262.48 1111.32 255.057 1112.73 251.346C1114.14 247.635 1110.26 253.708 1103.55 264.504C1097.2 275.637 1084.84 289.807 1076.37 296.555L1060.84 308.7L1062.96 291.831C1064.02 282.385 1066.13 271.251 1067.19 266.528C1069.31 259.443 1068.25 260.118 1061.9 269.565C1052.02 284.072 1049.9 281.373 1055.19 261.13C1060.13 241.562 1061.19 239.875 1065.43 246.286C1068.25 250.672 1068.96 250.334 1068.96 245.611C1068.96 242.574 1060.13 230.092 1049.54 218.283C1030.48 196.691 1012.48 182.521 1012.48 188.257C1012.48 189.944 1000.83 192.305 986.714 193.317C944.004 196.691 931.297 204.788 931.297 227.393C931.297 253.371 913.295 266.528 905.882 245.948C899.529 228.742 899.176 237.176 904.823 263.154C911.53 294.193 927.061 315.448 953.182 329.28C970.477 338.389 974.36 339.064 1009.31 339.064L1046.72 339.064L1045.31 351.21C1042.49 370.44 1051.66 383.598 1070.72 388.321C1092.96 393.719 1104.26 405.527 1104.26 423.071C1103.9 441.627 1097.2 452.085 1078.84 462.544C1048.49 479.75 1047.07 500.668 1075.31 513.488C1095.78 522.935 1097.55 530.694 1086.25 564.095C1079.19 584.337 1078.84 588.386 1082.72 594.796C1086.25 599.857 1086.25 602.218 1083.43 603.23C1075.31 605.929 1080.25 608.966 1092.96 608.966C1105.67 608.966 1106.02 608.628 1108.14 593.784C1109.55 585.349 1108.85 576.915 1107.08 575.228C1104.96 572.866 1103.9 572.866 1104.26 575.228C1106.73 586.361 1103.55 603.905 1099.67 603.905C1092.96 603.905 1092.61 567.131 1099.31 564.432C1102.14 563.42 1103.2 561.058 1101.79 558.697C1100.37 556.672 1098.26 545.539 1096.84 533.731C1095.08 515.85 1092.61 510.452 1083.43 501.342C1070.02 488.185 1069.66 482.112 1082.37 471.316C1087.67 466.593 1097.9 457.821 1105.67 451.411C1117.32 441.627 1119.43 437.578 1120.85 422.734C1122.61 408.564 1121.2 403.503 1114.85 394.731C1105.67 382.586 1087.31 373.814 1074.96 375.501C1070.72 376.176 1068.96 376.176 1071.43 375.501C1073.9 374.826 1072.14 371.115 1066.84 366.054C1060.84 360.319 1058.37 354.246 1058.37 344.8C1058.37 332.317 1059.43 330.967 1079.19 319.159C1124.73 292.506 1149.44 242.237 1139.2 196.354C1134.26 172.4 1126.49 157.893 1108.85 138.325C1101.08 129.891 1091.55 118.082 1086.96 112.01C1082.72 106.274 1077.43 101.214 1074.96 101.214C1072.84 101.214 1074.61 104.25 1078.84 107.961C1086.61 115.046 1089.08 121.456 1084.14 121.456C1077.43 121.119 1053.07 111.672 1052.37 108.973C1051.66 107.286 1055.55 104.25 1060.84 101.888C1070.37 98.5146 1070.02 98.1772 1054.84 98.852C1038.25 99.5267 1040.01 101.551 1025.54 71.5244C1022.37 65.1143 1018.13 62.0779 1010.72 61.4031L1000.13 60.391L1008.6 64.7769C1020.6 70.8497 1022.01 77.5972 1011.78 77.5972C1007.19 77.5972 997.657 81.3084 990.597 86.0317C973.654 96.8277 959.535 97.5025 959.535 86.7064C959.535 72.5366 955.299 70.5123 938.356 75.2356C923.178 79.2841 919.296 82.9953 895.293 115.721C891.41 120.781 888.939 121.119 879.409 117.745C873.055 115.721 867.761 112.347 867.761 110.66C867.761 104.25 882.233 84.6821 893.528 75.573C901.294 69.5002 902 68.1507 895.999 71.5245C891.057 74.2235 882.233 83.3327 875.879 91.4297C869.526 99.5268 862.113 108.973 859.289 112.01C854.348 117.408 854.7 118.082 864.937 120.781L875.879 123.48L861.76 127.529C846.582 131.915 811.284 159.58 811.284 166.665C811.284 173.075 800.695 180.497 784.811 184.883L770.692 188.594L785.87 175.099C793.988 167.677 799.989 159.917 798.577 158.23C797.518 156.543 793.282 159.917 789.046 165.99C778.81 180.16 762.573 188.932 739.629 192.643L721.275 195.342L742.453 194.33C755.866 193.318 761.161 193.992 756.572 195.679C742.806 201.415 707.861 199.053 691.271 191.968C682.447 187.92 677.505 184.208 679.976 183.196C682.8 182.184 678.211 177.798 669.034 172.063C660.209 167.002 649.267 156.206 644.325 148.446C639.384 140.349 634.795 136.301 634.089 138.662C631.618 146.085 601.615 100.202 594.202 77.9347C589.966 65.1143 598.438 72.5366 613.969 95.4782C621.382 106.612 627.735 114.709 627.735 113.359C627.735 107.961 616.087 90.0802 600.909 72.1993C580.789 48.9203 583.966 43.1849 604.792 64.777C622.441 82.9953 632.677 86.7065 650.679 80.9711C668.328 75.2357 675.387 61.4032 670.446 41.8353C668.328 34.0757 666.563 23.617 666.563 18.5563C666.563 7.76029 654.209 1.68749 637.266 4.72388C627.029 6.41077 625.264 8.09769 626.323 15.1826C627.029 23.9544 622.794 25.6413 613.969 20.5806C610.086 18.219 610.439 16.8695 615.734 13.8331C619.617 11.8088 621.382 10.1219 619.617 10.1219C618.205 10.1219 610.439 14.1705 602.674 18.8937C593.849 24.2918 586.084 26.6534 582.554 24.9665C572.318 20.918 557.492 20.2432 555.375 23.617C553.963 25.6413 546.197 21.2554 537.02 13.4957C527.842 6.07343 517.606 0.338034 513.37 0.338034C506.311 1.01279 506.311 1.01276 514.076 2.36226C521.842 3.71177 546.55 25.3039 546.55 31.0393C546.55 36.1 540.549 33.7383 523.96 21.9301C509.134 10.7967 506.664 10.122 495.368 13.1584C480.543 16.8695 479.484 13.8331 492.897 6.07343C498.192 2.69966 500.31 0.000664948 497.839 0.00066536C495.368 0.000665773 486.897 5.73607 479.131 12.821ZM659.503 13.4957C661.621 17.2068 662.68 20.2432 662.327 20.5806C661.621 20.5806 654.562 20.918 646.09 21.2554C630.559 21.9301 625.97 16.5321 637.619 10.4593C647.149 5.06129 655.268 6.07341 659.503 13.4957ZM521.489 25.6413L532.078 34.0757L522.548 47.2334C510.546 63.7649 504.899 65.1144 484.426 56.0052L467.836 48.5829L480.543 40.4859C487.603 35.7626 495.015 28.6777 496.78 24.6291C501.722 14.5078 508.075 14.8452 521.489 25.6413ZM603.027 26.9908C598.085 30.3645 593.496 32.7262 592.79 31.714C590.672 30.0272 603.733 20.5806 608.321 20.5806C610.439 20.2432 607.968 23.2796 603.027 26.9908ZM658.797 27.6655C670.093 38.4616 652.444 66.4638 636.913 62.078C622.088 57.6921 593.849 40.4859 601.262 40.4859C605.145 40.4859 616.44 36.7747 625.97 32.3888C646.443 22.9422 652.797 21.9301 658.797 27.6655ZM479.484 37.1121C469.601 44.5344 465.365 45.5465 465.365 40.4859C465.365 36.7747 484.073 26.6534 486.544 29.3524C487.603 30.0272 484.426 33.7383 479.484 37.1121ZM582.554 32.0514C588.202 39.4737 585.025 43.1849 573.024 43.1849C562.434 43.1849 560.669 42.1727 560.669 35.0878C560.669 28.3403 562.434 27.3281 570.553 27.6655C575.847 28.0029 581.142 30.0272 582.554 32.0514ZM627.382 63.0901C643.266 72.1993 647.855 76.2478 644.325 78.2721C635.854 82.658 599.497 62.4154 599.497 53.3062C599.497 48.5829 605.145 50.2698 627.382 63.0901ZM666.563 57.0173C666.563 61.0658 659.503 65.4517 657.032 63.0901C654.562 60.7285 659.15 53.9809 663.386 53.9809C665.151 53.9809 666.563 55.3304 666.563 57.0173ZM574.788 138.662C574.788 142.036 572.318 145.073 569.494 145.073C564.199 145.073 562.081 134.614 566.317 130.565C570.2 127.192 574.788 131.578 574.788 138.662ZM351 171.051C359.824 182.522 363.707 192.305 359.824 192.305C353.471 192.305 330.174 169.701 332.645 165.99C336.881 159.58 343.587 161.267 351 171.051ZM1027.66 208.837C1046.72 229.079 1047.78 232.116 1047.07 276.312L1046.37 317.135L1034.72 320.846C1016.01 326.581 986.715 325.569 971.536 318.484C961.653 313.761 955.299 307.351 948.946 295.205C944.004 285.759 936.944 273.951 933.415 268.89C927.061 260.118 927.061 258.769 932.709 242.237C935.886 233.128 938.356 222.669 938.356 219.295C938.356 206.475 963.065 196.691 998.716 196.016C1013.54 195.679 1016.36 197.029 1027.66 208.837ZM939.768 287.446C942.945 291.494 945.416 297.23 945.416 299.591C945.416 303.64 943.651 303.302 936.592 298.916C932.003 295.88 925.649 293.518 922.825 293.518C915.766 293.518 911.53 280.023 917.531 276.312C923.178 272.938 932.709 277.662 939.768 287.446ZM1116.61 416.661C1116.61 422.059 1114.49 426.782 1112.37 427.457C1109.2 428.469 1107.79 425.095 1107.79 416.661C1107.79 408.226 1109.2 404.853 1112.37 405.527C1114.49 406.54 1116.61 411.263 1116.61 416.661ZM1068.96 482.449C1068.96 488.86 1065.08 491.221 1060.84 487.173C1058.02 484.474 1061.9 475.702 1065.78 475.702C1067.55 475.702 1068.96 478.738 1068.96 482.449Z" fill="#0D3752"/><path d="M116.259 65.112C114.141 67.811 111.317 74.8959 109.905 81.3061C107.082 95.4759 103.905 97.8376 84.844 97.8376C65.7831 97.8376 58.0176 101.886 47.7812 116.056C43.5455 122.129 33.3091 135.624 25.1906 145.745C14.6013 158.565 8.60063 170.036 5.07084 184.881C2.24702 196.352 1.54106 205.123 3.30595 203.774C5.07085 202.762 6.48276 199.051 6.48276 195.339C6.48276 191.628 8.24765 189.604 10.0125 190.616C12.1304 191.966 13.5423 194.665 13.1894 196.689C12.8364 199.051 13.1894 203.099 14.6013 205.798C15.6602 208.497 18.1311 215.245 19.8959 220.98C22.0138 228.402 22.7198 223.342 21.3079 203.437C19.8959 178.133 20.6019 173.747 29.4264 156.879C39.3098 136.973 47.4283 130.226 69.3129 122.803C76.3725 120.442 79.5493 118.418 76.3725 118.08C73.1957 118.08 66.4891 119.43 61.5474 121.454C49.1932 125.84 49.5461 119.767 62.2534 113.357C67.548 110.658 69.6659 108.296 67.1951 107.959C56.6057 107.622 67.901 101.211 79.1963 101.211C93.3155 101.211 95.7863 107.621 81.6672 108.296C75.6665 108.634 74.2546 109.308 78.1374 110.321C81.3142 110.995 84.138 113.357 84.138 115.044C84.138 120.779 92.2565 118.08 100.728 109.308C105.317 104.585 109.905 101.211 110.964 101.886C114.141 104.922 108.141 114.369 102.493 115.719C96.8453 117.068 96.8453 117.405 102.493 117.743C110.258 118.08 113.435 113.02 115.906 96.1507C118.377 77.595 128.26 76.5828 152.263 92.4395C176.618 108.296 200.974 108.971 200.268 93.1143C200.268 86.0294 200.268 86.0294 197.091 93.4517C192.855 103.573 186.502 103.236 186.502 92.7769C186.502 73.5464 214.387 74.8959 226.741 94.8012C230.271 100.537 233.801 104.248 234.86 103.573C238.037 100.537 224.271 84.0051 215.093 79.6192C210.151 76.9202 201.327 74.2212 195.326 73.8838C186.149 72.5343 184.737 73.5464 182.619 83.6677C181.207 89.7405 179.089 95.8133 178.03 97.1628C174.501 100.199 126.848 76.5828 126.495 71.8596C126.495 69.4979 129.319 66.1241 132.849 64.4373C138.144 61.4009 137.438 61.0635 129.672 60.7261C124.378 60.7261 118.377 62.7504 116.259 65.112Z" fill="#0D3752"/><path d="M980.357 76.586C975.768 81.984 976.121 82.3214 981.768 77.9355C984.945 75.5739 987.769 72.8749 987.769 72.2001C987.769 69.5011 984.945 71.188 980.357 76.586Z" fill="#0D3752"/><path d="M800.703 145.07C798.585 148.781 797.879 151.817 798.585 151.817C799.644 151.817 802.115 148.781 804.233 145.07C806.351 141.359 807.057 138.322 806.351 138.322C805.292 138.322 802.821 141.359 800.703 145.07Z" fill="#0D3752"/><path d="M139.908 184.543C142.379 185.555 145.556 185.218 146.614 184.206C148.026 183.194 145.909 182.182 142.026 182.519C138.143 182.519 137.084 183.531 139.908 184.543Z" fill="#0D3752"/><path d="M175.22 184.543C177.691 185.555 180.868 185.218 181.927 184.206C183.339 183.194 181.221 182.182 177.338 182.519C173.456 182.519 172.397 183.531 175.22 184.543Z" fill="#0D3752"/><path d="M1001.19 184.543C1003.66 185.555 1006.84 185.218 1007.9 184.206C1009.31 183.194 1007.19 182.182 1003.31 182.519C999.424 182.519 998.365 183.531 1001.19 184.543Z" fill="#0D3752"/><path d="M116.61 193.316C102.491 202.426 79.9005 228.741 73.5469 242.911C69.6641 251.683 70.0171 257.081 74.9588 277.661C78.4886 291.156 80.6064 304.313 79.9005 307.012C78.8415 311.398 100.373 323.881 117.316 328.942C131.082 332.99 118.022 337.376 103.55 333.665C87.666 329.279 45.3086 304.651 45.3086 299.59C45.3086 297.566 38.249 288.794 29.7775 280.022C18.8352 268.551 12.1286 258.093 8.24582 244.598C5.06901 234.139 1.53922 226.379 0.480289 227.391C-2.69652 230.09 10.3637 267.877 18.4822 280.022C29.7775 296.216 47.7794 312.748 65.7813 322.869C79.1945 330.629 80.6064 332.653 80.6064 344.461C80.6064 357.956 68.6052 374.488 59.0748 374.488C56.6039 374.488 55.545 375.5 56.6039 376.512C59.7807 379.211 73.8999 371.451 83.4303 362.005L91.1958 353.908L91.1958 362.342C91.1958 373.138 80.6065 379.886 59.7807 382.247C49.5443 383.597 45.6616 382.922 49.1914 380.898C53.4271 378.536 53.0741 377.862 48.1324 377.862C40.0139 377.862 25.1888 393.718 20.2471 407.213C14.2465 424.757 21.3061 439.264 45.6616 459.169C71.076 480.424 72.488 488.521 53.7801 504.715C43.1907 514.162 41.4259 517.873 42.1318 528.669C42.8378 542.501 39.308 559.37 34.0133 565.443C29.4246 571.178 31.8955 613.351 36.8372 611.664C41.7789 609.977 42.4848 591.421 37.8961 588.722C34.0133 586.023 33.6603 567.805 37.8961 565.443C39.308 564.431 43.5437 566.455 46.7205 569.829C51.6622 574.89 52.0152 577.926 49.1914 582.987C46.7205 587.373 46.7205 590.409 49.1914 592.771C52.0152 595.47 51.6622 598.506 49.1914 603.567C45.3086 609.977 46.0146 610.652 54.1331 610.652C59.0748 610.652 62.9576 608.965 62.9576 607.278C62.9576 605.253 61.1927 603.904 59.4278 603.904C56.9569 603.904 56.251 599.518 57.6629 592.771C59.4278 583.324 54.1331 555.996 47.0735 539.128C43.5437 530.693 50.9563 520.235 66.8403 512.812C92.6077 499.992 92.9607 478.4 67.5463 465.917C48.1324 456.47 37.8961 444.662 35.7782 429.143C33.3073 410.25 43.5437 397.092 66.1343 389.67C91.9018 381.573 101.079 368.752 95.0786 348.51L91.9018 337.714L120.846 339.738C142.731 341.087 154.732 340.075 170.616 335.689C222.857 321.182 253.566 261.466 232.74 214.908C226.034 200.064 216.856 191.967 206.973 192.642C204.502 192.642 206.973 194.328 212.267 196.353C223.563 200.064 235.917 223.006 235.917 239.2C235.917 250.333 228.504 260.454 223.21 257.081C216.856 253.369 208.738 235.488 205.914 220.307C203.09 203.1 198.148 198.714 178.734 197.028L163.556 195.678L179.087 200.064C196.383 204.787 196.383 204.787 207.679 237.175L215.444 260.117L208.385 267.539C204.502 271.588 197.442 283.396 192.501 293.855C181.558 317.808 169.557 323.881 132.847 323.881C97.5494 323.881 92.9607 320.507 92.6077 292.843C92.6077 281.034 91.1958 265.515 89.7839 257.755C86.2541 241.561 91.9017 229.416 111.316 208.836C122.964 196.69 125.435 195.678 143.79 195.003L163.556 194.329L146.613 193.316C137.436 192.642 130.729 190.617 131.788 188.593C135.318 183.532 128.964 185.557 116.61 193.316ZM79.5475 253.707C78.4886 256.068 77.7826 254.382 77.7826 249.658C77.7826 244.935 78.4886 243.248 79.5475 245.272C80.2534 247.634 80.2534 251.683 79.5475 253.707ZM85.1952 275.974C82.7243 285.758 77.0766 279.347 77.0766 266.527C77.0766 259.442 77.7826 258.767 82.3713 263.153C85.5481 266.19 86.6071 271.25 85.1952 275.974ZM228.857 280.022C228.857 285.083 215.444 296.891 209.797 296.891C206.973 296.891 202.384 300.94 199.913 306C191.442 323.206 143.084 341.087 132.494 330.966C129.67 328.267 132.847 327.255 144.496 327.255C162.85 327.255 189.324 316.459 192.148 308.024C198.501 288.794 202.384 282.384 209.091 280.022C219.327 275.974 228.857 275.974 228.857 280.022ZM79.9005 484.473C80.6065 490.883 78.8416 496.618 74.6058 499.992C68.6052 505.39 68.2522 504.715 68.2522 488.858C68.2522 476.038 69.3112 472.327 73.5469 473.002C76.7237 473.677 79.1946 478.4 79.9005 484.473Z" fill="#0D3752"/><path d="M190.047 188.93C192.871 190.617 197.107 192.304 198.872 192.304C200.99 192.304 199.931 190.617 197.107 188.93C194.283 187.243 190.4 185.556 188.283 185.556C186.518 185.556 187.224 187.243 190.047 188.93Z" fill="#0D3752"/><path d="M412.414 192.305L393 194.667L410.649 195.004C420.532 195.004 431.475 193.992 435.357 192.305C443.476 188.931 440.299 188.931 412.414 192.305Z" fill="#0D3752"/><path d="M910.12 211.199C902.002 229.08 900.943 238.526 908.708 225.031C912.944 217.272 915.062 216.26 920.71 219.296C924.592 221.32 927.769 221.658 927.769 219.971C927.769 217.946 924.239 215.922 920.004 214.91C912.944 212.886 912.944 212.548 918.592 204.451C921.769 199.391 922.828 195.68 920.71 195.68C918.592 195.68 913.65 202.764 910.12 211.199Z" fill="#0D3752"/><path d="M214.049 218.282C216.519 219.295 219.696 218.957 220.755 217.945C222.167 216.933 220.049 215.921 216.166 216.258C212.284 216.258 211.225 217.27 214.049 218.282Z" fill="#0D3752"/><path d="M24.4878 236.837C24.1348 240.211 27.3116 250.332 31.1944 259.779C35.0771 268.888 37.195 276.647 36.1361 276.647C31.5473 276.647 41.7837 285.757 58.3737 296.553L75.3167 307.349L60.8446 294.528C45.3135 281.033 36.489 267.201 29.0765 244.597C26.6056 237.174 24.4878 233.8 24.4878 236.837Z" fill="#0D3752"/></svg>