<svg xmlns="http://www.w3.org/2000/svg" viewBox="0 0 356.99 233.30" data-guides="{&quot;vertical&quot;:[],&quot;horizontal&quot;:[]}"><defs></defs><path fill="#3E5573" stroke="none" fill-opacity="1" stroke-width="1" stroke-opacity="1" id="tSvg20b2ce5de5" title="Path 2" d="M256.2814 3.2497C253.2934 5.035 243.3956 11.9978 234.6188 19.139C225.655 26.2802 214.4503 34.6713 209.5954 37.8848C201.7516 43.0623 200.4446 43.4193 196.3357 41.4554C192.7878 39.4916 189.2399 39.4916 179.3421 41.0984C147.7818 46.0973 133.4031 42.8837 113.0476 25.9233C96.0536 11.9978 82.6079 6.2847 62.9997 4.8565C48.06 3.7853 46.566 3.9638 37.4154 8.7842C29.7589 12.7118 24.7167 17.5322 14.259 30.7435C9.8393 36.3971 5.4197 42.0506 1.0001 47.7041C1.3113 51.2747 1.6225 54.8453 1.9338 58.4159C3.6145 80.9109 17.6204 99.2996 35.9215 103.5846C41.1504 104.8346 51.4214 107.5125 58.7045 109.2975C83.7284 115.9033 91.1982 114.1174 113.2346 97.1573C136.204 79.4827 156.3726 69.4849 156.3726 75.7335C156.3726 76.9832 153.9446 79.6612 150.7697 81.268C142.5529 85.9098 133.5891 97.6929 124.0653 115.7243C115.6615 131.614 106.1377 143.2187 101.4688 143.2187C100.162 143.2187 92.879 139.4688 85.4092 134.8279C74.2044 128.0431 69.9092 126.2581 61.3189 125.7221C41.8973 124.4722 20.4216 136.0769 11.271 152.6805C6.7892 161.2503 6.0422 175.533 9.7771 183.2098C13.8855 191.2437 24.53 198.5635 32.3734 198.5635C39.2829 198.5635 49.9275 201.7764 53.4756 204.8114C59.8249 210.5252 48.9937 225.1639 38.3492 225.5219C36.295 225.5812 34.2408 225.6406 32.1866 225.6999C34.8633 226.5925 37.54 227.4852 40.2167 228.3778C50.8611 231.9488 56.6503 230.3418 66.1743 220.701C79.62 207.4893 80.5538 191.0647 68.4153 185.1738C62.0659 181.9599 56.2768 181.7809 44.8853 184.6378C36.4818 186.6018 36.1083 186.6018 30.8794 180.8889C28.0782 177.854 25.6505 173.926 25.6505 172.3191C25.6505 162.8573 41.8973 143.2187 49.7407 143.2187C51.7949 143.2187 59.078 145.7177 65.9876 148.5746C87.8368 158.0364 90.2646 158.2154 125.9333 151.7875C144.9808 148.3956 162.7214 126.2581 167.7643 99.2996C170.9383 82.1606 170.3783 82.6962 180.0891 83.4104C185.6919 83.7675 189.6128 85.0171 191.1068 86.981C193.5348 90.1945 201.3786 107.6905 207.5404 123.7582C211.6494 134.8279 222.1071 145.8967 233.6849 151.7875C242.0887 156.0724 245.2636 156.6084 261.8842 156.6084C279.9978 156.6084 281.1188 156.4294 298.1124 148.7526C307.8232 144.4677 317.908 140.8978 320.5219 140.8978C329.8597 140.8978 338.8235 157.5014 336.3956 169.8191C334.9016 176.782 325.9378 185.7088 316.974 189.1007C303.9013 194.2786 296.2455 205.5263 298.1124 217.3091C300.5404 233.9127 336.7686 238.0186 347.7873 223.022C351.7082 217.4871 349.8413 217.3091 344.4254 222.486C338.4495 228.1998 328.7387 228.7348 322.3899 223.7359C312.4921 216.0591 319.028 199.4555 335.6486 189.8147C345.3594 184.2808 349.8413 180.1749 353.2022 173.926C357.3111 166.2492 356.9371 160.0004 351.7082 149.2886C343.3054 131.971 321.4559 120.0093 302.5943 122.5092C298.1124 123.0442 288.2146 126.4361 280.7448 129.829C273.275 133.221 265.4322 136.0769 263.5642 136.0769C261.1372 136.0769 258.3353 132.864 254.6004 126.2581C247.5046 113.2254 227.523 94.6578 212.9563 87.3381C203.8055 82.8748 201.1916 80.7324 201.1916 77.5188C201.1916 71.9843 203.8055 72.5199 219.1192 81.625C226.402 86.0883 235.3658 90.1945 238.7277 90.7301C242.2757 91.2657 252.9204 94.1222 262.4442 96.9788C292.5105 106.0836 301.4743 103.9416 318.655 84.303C332.6607 68.2352 335.6486 61.6295 335.6486 47.347C335.6486 31.4577 331.9137 25.0306 317.347 15.3899C299.4194 3.6068 267.6731 -2.6418 256.2814 3.2497ZM283.5467 4.678C308.1972 11.8193 313.2391 13.6045 313.2391 15.0328C313.2391 15.7469 311.5581 16.4611 309.5042 16.4611C307.4502 16.4611 299.6064 19.3175 292.1366 22.8882C284.8537 26.4588 274.5829 30.0295 269.3541 30.7435C266.2415 31.2196 263.1289 31.6957 260.0163 32.1718C262.6929 32.2313 265.3695 32.2908 268.0461 32.3503C272.715 32.3503 280.1848 30.922 285.6007 28.6012C294.7515 24.852 295.3115 24.852 297.1784 27.887C302.2213 36.0995 306.5162 39.8486 314.3591 43.0623C324.2568 47.347 326.1248 50.9176 322.0159 57.8803C320.3349 60.7369 319.7749 62.8792 321.0819 62.8792C322.3899 62.8792 322.3899 63.7719 320.8959 65.3787C318.841 67.8781 304.2753 70.7347 285.2267 72.5199C277.5709 73.4126 277.1969 73.2341 280.3718 70.9131C284.6667 67.6996 282.9858 67.3425 277.9439 70.3776C275.1429 71.9843 273.462 71.6272 268.2331 67.8781C264.6852 65.3787 259.4563 62.5221 256.2814 61.451C247.6915 58.4159 229.577 57.3448 217.6252 58.9515C211.6494 59.8442 206.7935 60.0227 206.7935 59.4871C206.7935 58.773 212.3963 56.4521 219.1192 54.1312C225.842 51.8103 235.3658 47.1685 240.0347 43.5979C244.8896 40.0272 250.8655 36.0995 253.4804 34.8498C257.2153 33.0645 257.4023 32.5289 254.6004 32.5289C252.7334 32.5289 248.0645 34.8498 244.3296 37.7063C236.6728 43.5979 223.0411 50.382 219.4922 50.382C218.1852 50.2035 220.4262 48.5967 224.5351 46.4543C233.6849 41.991 246.0106 30.922 246.0106 27.1729C246.1976 25.0306 246.7576 25.2091 248.8115 27.887C250.3055 29.8509 251.6125 30.7435 251.6125 30.0295C251.6125 26.8158 244.8896 20.7458 243.2096 22.174C242.0887 23.0667 236.8598 26.4588 231.2579 29.4939C225.655 32.7074 221.1731 36.0995 221.3601 36.9922C221.5471 39.4916 210.7154 45.7402 209.0344 44.1334C207.5404 42.8837 207.9144 42.5267 235.5528 20.9244C260.5763 1.2859 265.8051 -0.4995 283.5467 4.678ZM76.0719 9.1412C76.0719 10.0339 75.1381 11.1051 74.0176 11.4622C72.7105 11.8193 71.59 14.3186 71.2165 16.8181C70.843 20.5673 72.337 22.5311 77.5658 26.1017C87.2766 32.3503 94.5597 34.6713 100.7223 33.4215C106.8847 31.9933 107.0717 30.922 102.0298 24.6735C96.2404 17.7107 100.5355 19.139 111.9266 28.0656C117.5295 32.5289 127.8002 38.4204 134.5231 41.4554C141.4329 44.4904 147.0348 47.1685 147.0348 47.7041C147.0348 48.2397 141.4329 46.4543 134.5231 43.9549C117.9024 37.8848 110.6196 36.278 99.9753 36.0995C94.373 36.0995 87.2766 34.3142 79.62 30.7435C75.6984 28.9582 71.7767 27.1729 67.8551 25.3876C64.9916 26.9944 62.1282 28.6012 59.2648 30.208C39.0962 41.634 41.1504 40.9198 36.8553 36.4565C31.6264 31.2791 29.1986 32.8859 31.4396 40.2057C34.054 48.7752 33.8673 49.3108 24.53 55.5595C19.8613 58.5945 15.0059 63.5934 13.8855 66.6284C11.271 73.0555 7.9097 73.4126 9.5904 66.9854C10.3373 64.486 10.1506 61.8081 9.2169 61.2725C8.2831 60.7369 6.9759 56.9877 6.4157 52.8815C5.2952 46.0973 5.8554 44.8475 17.8072 29.8509C33.4938 10.0339 37.6022 8.0701 59.2648 7.713C68.602 7.713 76.0719 8.4271 76.0719 9.1412ZM90.2646 13.9616C93.8127 16.6396 93.8127 16.6396 90.0778 15.0328C88.0236 14.1401 85.0357 12.8904 83.5417 12.3549C81.114 11.4622 81.114 11.2836 83.7284 11.2836C85.2224 11.1051 88.2103 12.3549 90.2646 13.9616ZM320.1489 27.53C325.3778 34.6713 330.0457 47.8826 326.6848 46.4543C311.7451 40.2057 306.1422 36.8136 303.3413 32.1718C301.4743 29.1368 300.3534 26.4588 300.5404 26.2802C307.2632 21.8169 310.8111 20.0317 312.4921 20.0317C313.6121 20.0317 316.974 23.4238 320.1489 27.53ZM328.7387 27.53C333.0336 32.8859 335.4616 50.382 332.1007 50.382C330.9797 50.382 330.0457 47.5255 330.0457 43.7764C330.0457 40.0272 327.9918 33.9572 325.1908 29.3153C319.9619 20.9244 322.5759 19.6746 328.7387 27.53ZM82.7947 36.0995C88.7706 40.0272 97.1741 45.5617 101.0958 48.5967C107.6317 53.417 133.7761 62.8792 140.6859 62.8792C153.0107 62.8792 118.6494 75.912 98.4814 78.7686C90.8248 80.0182 80.367 81.9821 75.1381 83.4104C42.8311 92.337 25.0902 89.6589 17.0602 75.0194C13.512 68.4137 16.4999 62.7007 26.5842 56.4521C31.0661 53.7741 35.548 50.0249 36.6685 47.8826C39.4697 43.2408 62.6262 29.1368 67.8551 28.9583C69.9092 28.9583 76.6321 32.1718 82.7947 36.0995ZM238.5408 33.0645C238.5408 36.0995 227.523 40.5628 225.282 38.4204C223.9741 37.1707 225.655 35.5639 229.577 33.7786C237.0468 30.208 238.5408 30.0295 238.5408 33.0645ZM196.5227 44.3119C199.3236 46.9899 199.1376 47.7041 194.8417 51.9888C192.2278 54.4882 189.4268 58.5945 188.4929 60.9154C187.3719 63.7719 185.1309 65.3787 181.957 65.7358C179.1551 65.9143 176.9141 65.5572 176.9141 64.6646C176.9141 61.2725 184.758 45.7402 187.5589 43.5979C191.6678 40.7413 192.7878 40.9198 196.5227 44.3119ZM110.2466 44.4904C108.9386 44.8475 106.6977 44.8475 105.5777 44.4904C104.2708 43.9549 105.2037 43.5979 107.8187 43.5979C110.4326 43.5979 111.3666 43.9549 110.2466 44.4904ZM181.396 48.0612C180.0891 50.9176 178.7821 54.1312 178.7821 55.2024C178.7821 56.4521 177.4751 57.5232 175.9811 57.5232C174.3002 57.5232 172.6192 58.773 172.0592 60.2013C170.5653 63.9504 168.1373 63.5934 166.6434 59.3086C166.0834 57.3448 166.8304 53.7741 168.8843 50.9176C172.9932 44.669 175.0472 43.2408 180.0891 43.2408C184.011 43.2408 184.011 43.4193 181.396 48.0612ZM129.1072 47.7041C132.2821 50.0249 132.4691 50.382 129.6682 50.382C127.9872 50.382 126.4933 49.6679 126.4933 48.5967C126.4933 47.7041 125.1863 47.5255 123.3183 48.0612C121.2644 48.7752 120.7044 48.5967 121.6374 47.1685C123.3183 44.4904 124.8123 44.4904 129.1072 47.7041ZM160.1075 46.6329C160.1075 49.8464 156.7456 50.382 154.5046 47.7041C152.6377 45.3831 152.8247 45.026 156.1856 45.026C158.2395 45.026 160.1075 45.7402 160.1075 46.6329ZM167.5773 47.347C167.5773 48.5967 166.6434 50.5606 165.5234 51.6318C164.2154 52.8815 162.1615 57.5232 160.8545 62.3436C158.6135 70.5561 158.4265 70.7347 158.4265 64.6646C158.2395 55.5595 161.6015 45.026 164.7764 45.026C166.2704 45.026 167.5773 46.0973 167.5773 47.347ZM333.7806 56.2736C333.7806 62.3436 323.3229 77.1617 319.4019 76.9832C317.534 76.8047 313.6121 76.0905 310.4381 75.198C305.0223 73.7697 305.2093 73.7697 311.5581 74.4838C316.787 75.0194 319.4019 74.1267 322.2029 71.2702C327.0578 65.9143 330.0457 60.3798 330.0457 55.9165C330.0457 53.7741 330.9797 52.1674 331.9137 52.1674C333.0336 52.1674 333.7806 53.9526 333.7806 56.2736ZM199.1376 63.2363C198.9506 69.842 198.7636 70.1991 197.4567 66.4498C195.2157 60.0227 195.2157 55.738 197.4567 55.738C198.5766 55.738 199.3236 59.1301 199.1376 63.2363ZM260.2033 65.2002C263.3782 66.8069 266.9261 69.1278 268.2331 70.7347C272.342 75.3764 289.1486 79.6612 304.0883 79.6612C314.92 79.8397 318.094 80.3753 317.534 81.9821C316.6 84.1245 314.3591 85.0171 312.4921 83.7675C311.9321 83.5889 309.6912 85.1956 307.2632 87.1595C298.6724 94.6578 295.4985 95.372 285.7877 91.6228C279.9978 89.4804 273.275 88.4093 266.5521 88.7664C252.9204 89.4804 234.2458 85.1956 222.2941 78.59C216.8782 75.7335 212.3963 73.0555 212.3963 72.6985C212.3963 71.8058 229.017 76.6261 244.1426 81.8036C256.4684 86.0883 264.6852 85.9098 264.6852 81.4465C264.6852 78.233 260.7633 76.2691 259.2693 78.7686C258.1493 80.1967 255.7214 80.0182 249.5585 78.0544C245.0766 76.6261 236.2998 73.9482 230.1369 72.3414C221.1731 69.842 219.8662 69.1278 223.9741 68.5922C226.776 68.2352 234.2458 69.3064 240.5947 70.7347C246.7576 72.3414 252.9204 73.5911 254.0404 73.5911C258.7093 73.4126 246.5706 68.4137 239.1007 67.164C234.6188 66.6284 231.4439 65.3787 232.0049 64.6646C232.5649 63.7719 230.6969 62.7007 227.896 62.1651C224.9081 61.8081 229.9499 61.6296 238.7277 61.8081C248.4385 62.1651 256.8413 63.5934 260.2033 65.2002ZM213.7033 63.9504C213.1433 64.486 211.4624 64.6646 210.1554 64.129C208.6614 63.5934 209.2214 63.0577 211.2754 63.0577C213.3303 62.8792 214.4503 63.4148 213.7033 63.9504ZM193.1618 68.5922C192.6008 70.0205 192.0408 69.4849 192.0408 67.521C191.8538 65.5572 192.4148 64.486 192.9748 65.2002C193.5348 65.7358 193.7218 67.3425 193.1618 68.5922ZM164.9624 80.1967C164.2154 80.9109 162.9084 80.3753 161.9745 78.9471C158.9865 74.4838 159.9205 72.6985 163.2824 75.912C164.9624 77.5188 165.7094 79.4827 164.9624 80.1967ZM184.011 76.6261C183.264 80.7324 175.0472 82.1606 175.0472 78.4115C175.0472 76.8047 176.1671 75.198 177.4751 74.8409C182.143 72.877 184.571 73.5911 184.011 76.6261ZM193.7218 76.9832C193.7218 80.9109 190.9208 83.2319 188.1189 81.625C186.8119 80.9109 186.8119 79.3042 188.1189 76.9832C190.7338 72.5199 193.7218 72.5199 193.7218 76.9832ZM302.9683 75.3764C303.7153 76.4476 302.0343 77.1617 299.4194 77.1617C296.8055 77.1617 294.5645 76.2691 294.5645 75.3764C294.5645 74.3053 296.2455 73.5911 298.1124 73.5911C300.1664 73.5911 302.4073 74.3053 302.9683 75.3764ZM123.6923 76.9832C123.1313 77.8759 117.1555 80.3753 110.4326 82.5177C100.909 85.5527 97.3609 87.6951 94.1862 92.5155C90.2646 98.2284 89.5176 98.5855 79.8068 98.407C74.0176 98.2284 67.4816 98.9426 65.4273 100.1927C60.3852 102.6916 59.2648 102.6916 59.2648 100.3707C59.2648 99.2996 61.3189 97.5144 63.9334 96.4432C70.2827 93.5866 69.7225 91.4443 62.6262 91.2657C57.584 91.2657 58.7045 90.5516 68.602 87.6951C75.3249 85.7312 87.4633 82.8748 95.8669 81.625C104.0838 80.1967 113.0476 78.233 115.4755 77.3403C121.2644 75.0194 125.1863 75.0194 123.6923 76.9832ZM120.5174 88.9448C100.3488 104.6556 88.7706 111.6184 84.1019 110.7255C81.4875 110.3685 82.0477 109.4755 86.7163 106.6196C89.8911 104.6556 96.6139 99.4782 101.4688 95.0149C109.6856 87.5166 130.0412 75.912 135.4571 75.5549C136.951 75.3764 130.2282 81.4465 120.5174 88.9448ZM18.7409 81.4465C22.6626 87.1595 36.8553 92.1584 45.2588 90.9087C54.5961 89.4804 53.2889 92.337 43.2046 95.729C29.7589 100.0138 18.1807 95.372 15.3794 84.66C14.6325 81.9821 13.1385 79.3042 12.018 78.59C10.5241 77.6974 10.7108 77.1617 12.765 77.1617C14.4458 77.1617 17.2469 79.1256 18.7409 81.4465ZM151.7037 88.4093C151.7037 90.7301 149.4627 95.729 146.8488 99.6567C139.192 110.7255 135.83 117.6883 135.83 122.6872C135.83 127.1501 137.138 127.8651 143.8609 127.3291C148.1558 126.7931 147.9688 130.186 143.2999 132.864C141.2459 134.1129 139.565 136.0769 139.565 137.3269C139.565 140.8978 132.8421 143.3967 121.8244 143.9327C114.3545 144.4677 109.8726 145.7177 105.2037 149.2886C93.8127 157.5014 94.1862 154.2875 105.7647 143.9327C113.6075 137.1479 118.8364 130.543 122.7583 122.3302C125.9333 115.9033 132.8421 106.0836 138.258 100.5497C143.4869 95.0149 145.5408 92.5155 142.7399 94.8364C139.939 97.3359 137.698 98.407 137.698 97.1573C137.698 95.9076 150.2097 84.303 151.7037 84.303C151.8907 84.303 151.8907 86.0883 151.7037 88.4093ZM160.1075 93.4081C156.7456 105.9056 150.5837 120.0093 148.1558 120.1882C147.0348 120.3662 145.3548 120.3662 144.4209 120.1882C143.6739 120.0093 141.8059 120.9022 140.3119 121.9732C136.951 124.4722 136.951 123.4012 140.126 117.6883C142.1799 114.1174 143.1139 113.4034 144.9808 115.1894C146.6618 116.7953 146.8488 116.0813 146.1018 111.9754C145.3548 107.6905 146.6618 104.1196 152.8247 95.372C156.9326 89.1233 160.8545 84.303 161.2275 84.8386C161.7885 85.3742 161.2275 89.3019 160.1075 93.4081ZM203.4325 96.8002C207.5404 104.1196 210.7154 107.5125 213.1433 107.5125C216.5042 107.5125 216.5042 107.3335 212.5833 103.2276C210.1554 100.7277 208.6614 97.8714 209.0344 96.8002C209.7814 94.4793 229.203 113.5824 229.203 116.6173C229.203 117.5103 227.896 118.2243 226.215 118.2243C224.7211 118.2243 223.7881 117.5103 224.3481 116.6173C224.9081 115.9033 223.7881 113.7604 221.9201 112.1534C218.7452 109.2975 218.3722 109.2975 217.4382 112.6894C216.3182 116.9743 222.2941 122.8662 229.7639 124.4722C232.5649 125.1871 234.8058 125.1871 234.8058 124.6511C234.8058 121.4372 226.962 109.2975 220.0532 101.7987C217.4386 99.0018 214.8239 96.205 212.2093 93.4081C214.139 93.9437 216.0686 94.4793 217.9982 95.0149C228.27 97.8714 244.8896 113.4034 252.5464 127.3291C260.7633 142.5048 269.3541 152.1445 274.396 152.1445C276.6369 152.1445 277.3839 152.8595 276.6369 154.1085C274.209 158.0364 244.8896 154.6445 233.4989 149.4666C228.083 146.7887 223.6011 144.1107 223.6011 143.2187C223.6011 142.3258 226.402 143.0397 229.7639 145.0037C232.9379 146.7887 239.1007 148.9316 243.2096 149.4666C247.3176 150.1816 252.1734 151.0736 254.0404 151.6095C255.7214 151.9665 257.2153 151.6095 257.2153 150.5386C257.2153 149.4666 256.2814 148.5746 254.9744 148.5746C253.8534 148.5746 247.8775 145.0037 242.0887 140.5408C236.1128 136.0769 230.1369 132.507 228.456 132.507C222.4801 132.507 209.9684 116.7953 211.8363 111.6184C212.2093 110.5475 210.7154 109.2975 208.4744 108.9405C205.6735 108.5835 203.0585 105.3696 199.3236 97.1573C192.4148 83.0533 195.2157 82.6962 203.4325 96.8002ZM158.2395 118.9383C155.6256 123.9372 150.2097 126.7931 152.0777 122.5092C152.6377 121.2592 153.7576 120.0093 154.5046 120.0093C155.4386 120.0093 156.7456 118.4023 157.3066 116.2603C158.0536 114.2964 158.9865 113.0464 159.7335 113.5824C160.2945 114.1174 159.5475 116.6173 158.2395 118.9383ZM328.1788 128.9361C336.3956 132.864 346.8533 141.9688 346.8533 145.1827C346.8533 146.6107 345.9194 146.4317 343.4914 144.4677C341.8114 142.8617 336.2086 140.5408 331.3537 139.2908C321.6429 136.7909 316.414 138.0408 291.0166 148.7526C283.5467 151.9665 280.7448 152.5025 280.1848 150.7166C279.6248 149.6456 277.3839 148.5746 275.1429 148.5746C271.408 148.5746 260.9503 140.5408 263.0042 139.1118C264.4982 138.2198 284.4797 130.186 293.6305 126.9721C304.6483 122.8662 317.347 123.7582 328.1788 128.9361ZM71.59 129.829C79.2465 132.864 95.12 143.3967 93.8127 144.6467C93.4392 145.1827 89.8911 144.1107 86.3429 142.3258C82.6079 140.7188 79.0598 139.8258 78.4995 140.3618C77.9393 140.8978 79.8068 142.1468 82.6079 143.2187C89.7043 145.7177 87.4633 147.3246 80.1803 144.8247C76.8189 143.7537 74.2044 141.9688 74.2044 140.8978C74.2044 139.2908 73.8309 139.2908 72.7105 140.8978C71.7767 142.3258 70.2827 142.5048 68.602 141.4328C66.1743 139.8258 66.1743 139.6478 68.602 139.6478C73.0839 139.4688 66.7346 136.4339 59.078 135.1849C53.2889 134.1129 53.6624 134.6489 64.4936 141.6118C70.843 145.7177 75.8851 149.4666 75.3249 149.8236C74.9514 150.1816 70.2827 148.5746 64.8671 145.8967C53.1021 140.1838 39.8432 138.3978 30.5059 141.4328C20.7951 144.4677 20.2348 142.5048 29.1986 136.9699C44.3251 127.3291 59.2648 124.8301 71.59 129.829ZM145.1678 137.8629C145.1678 138.7548 144.2339 139.6478 143.1139 139.6478C142.1799 139.6478 141.8059 138.7548 142.3669 137.8629C142.9269 136.7909 143.8609 136.0769 144.4209 136.0769C144.7938 136.0769 145.1678 136.7909 145.1678 137.8629ZM36.8553 143.9327C36.8553 144.4677 36.1083 145.3607 34.9878 145.8967C34.054 146.4317 33.1203 146.0747 33.1203 145.1827C33.1203 144.1107 34.054 143.2187 34.9878 143.2187C36.1083 143.2187 36.8553 143.5757 36.8553 143.9327ZM28.4516 150.3596C27.8915 151.4306 28.6384 151.6095 30.1324 151.0736C34.2408 149.6456 33.8673 151.2526 29.0119 157.6794C23.5963 164.4633 23.2228 176.961 28.0782 181.9599C32.3734 186.7798 32.1866 187.3157 25.277 188.3867C18.1807 189.2797 13.512 187.4937 11.8313 183.0308C10.5241 179.9959 16.8734 162.4993 20.9818 157.5014C22.2891 156.0724 23.783 153.3945 24.3432 151.6095C25.0902 150.0026 26.3975 148.5746 27.518 148.5746C28.6384 148.5746 29.0119 149.2886 28.4516 150.3596ZM342.5584 157.1434C345.5464 161.4283 348.1603 158.0364 345.1724 153.7515C341.9974 148.7526 344.0524 147.3246 348.7203 151.2526C351.3352 153.3945 352.4552 156.7864 352.4552 161.6073C352.4552 167.4982 350.9612 170.3551 344.0524 178.032C339.3835 183.3878 333.7806 187.8517 330.9797 188.2087C325.0038 189.2797 325.0038 187.8517 330.9797 182.4949C339.0095 175.354 340.6905 164.9992 336.3956 150.7166C335.4616 147.5036 335.2746 147.3246 342.5584 157.1434ZM66.7346 186.9588C73.0839 189.9937 75.1381 195.7066 73.4574 204.6334C71.9635 211.9532 67.4816 216.5951 66.3611 211.7742C65.8008 208.9183 65.6141 208.9183 62.4394 211.9532C60.0117 214.2741 59.6382 215.5241 61.1322 216.4161C63.7467 218.0231 56.2768 227.1279 52.3551 227.1279C48.6202 227.1279 49.554 223.9149 54.2226 220.88C57.9575 218.5591 58.5178 217.1301 57.584 210.7032C56.6503 204.9904 55.343 202.4904 52.3551 201.2414C49.9275 200.3485 48.06 199.0985 48.06 198.5635C48.06 198.0275 51.6081 196.2426 56.09 194.2786C65.9876 190.1727 61.8792 188.2087 51.2346 191.9576C41.5239 195.3496 30.8794 196.7775 25.8372 195.5286C20.6083 194.2786 20.7951 191.4217 26.2107 191.4217C28.4516 191.4217 35.3613 189.8147 41.5239 188.0297C55.5298 183.7448 59.8249 183.5668 66.7346 186.9588ZM323.1369 194.8136C322.5759 196.7775 320.5219 199.8125 318.468 201.5984C314.5461 204.8114 314.5461 204.8114 316.787 200.7055C318.655 197.4915 318.468 196.7775 316.04 196.7775C312.6791 196.7775 312.6791 197.8495 315.106 211.9532C316.414 220.344 318.094 223.5579 322.0159 226.5929C329.1127 232.1267 325.3778 231.7698 316.787 226.0569C308.5702 220.523 305.0223 215.8811 303.3413 208.2043C301.8473 200.3485 310.2512 192.6716 322.0159 191.6007C323.1369 191.4217 323.6969 192.8506 323.1369 194.8136Z"></path></svg>