<svg xmlns="http://www.w3.org/2000/svg" width="564" height="319" viewBox="0 0 564 319" fill="none"><path d="M560.351 124.97C560.351 125.19 559.581 125.85 558.041 126.95C554.961 128.71 550.671 132.23 545.171 137.51C531.311 150.49 512.061 170.4 487.421 197.24C469.381 216.82 459.261 227.71 457.061 229.91C442.761 244.65 429.121 257.08 416.141 267.2C373.681 300.2 332.651 316.37 293.051 315.71C276.771 315.49 262.911 311.97 251.471 305.15C239.371 298.11 232.111 288.54 229.691 276.44C228.591 271.16 229.141 268.3 231.341 267.86C232.441 267.42 233.321 269.18 233.981 273.14C236.181 284.58 243.001 293.71 254.441 300.53C264.781 306.47 277.101 309.66 291.401 310.1C324.401 310.98 360.921 295.36 400.961 263.24C414.161 252.68 429.011 239.26 445.511 222.98C460.471 208.24 471.141 196.8 477.521 188.66C467.621 197.46 461.241 202.96 458.381 205.16C442.981 217.26 431.761 223.31 424.721 223.31C417.021 223.31 413.171 219.9 413.171 213.08C413.171 202.3 421.091 188.66 436.931 172.16C454.531 154.12 471.691 140.37 488.411 130.91C494.131 127.83 500.841 126.51 508.541 126.95C477.741 151.81 454.201 174.03 437.921 193.61C428.681 204.61 424.061 211.76 424.061 215.06C424.061 217.04 425.051 218.03 427.031 218.03C432.751 218.03 442.541 212.53 456.401 201.53C472.241 188.77 488.631 174.58 505.571 158.96C514.371 150.6 526.581 140.15 542.201 127.61C545.721 125.41 550.891 124.31 557.711 124.31C559.471 124.31 560.351 124.53 560.351 124.97Z" fill="#3E5573"/><path d="M453.277 126.62C424.017 152.8 401.687 175.13 386.287 193.61C377.047 204.61 372.427 211.76 372.427 215.06C372.427 216.38 372.977 217.26 374.077 217.7C378.037 219.68 388.707 213.85 406.087 200.21C413.347 194.49 423.797 185.58 437.437 173.48C439.197 171.72 440.517 171.61 441.397 173.15C442.057 174.47 441.507 175.9 439.747 177.44C428.747 187.12 418.517 195.81 409.057 203.51C392.777 216.71 381.007 223.31 373.747 223.31C365.827 223.31 361.867 219.68 361.867 212.42C361.867 207.58 364.067 201.86 368.467 195.26C346.247 213.96 330.407 223.31 320.947 223.31C313.467 223.31 309.727 219.68 309.727 212.42C309.727 199.22 318.307 183.82 335.467 166.22C346.687 154.78 359.887 144.77 375.067 136.19C390.467 127.61 402.897 123.32 412.357 123.32C419.397 123.32 422.917 125.74 422.917 130.58C422.917 135.2 419.507 140.81 412.687 147.41C426.547 135.97 435.787 129.48 440.407 127.94C444.147 126.62 448.437 126.18 453.277 126.62ZM414.337 128.27C403.777 128.27 382.547 143.56 350.647 174.14C330.407 193.5 320.287 207.14 320.287 215.06C320.287 216.6 320.947 217.7 322.267 218.36C325.347 219.68 333.157 215.83 345.697 206.81C358.457 197.57 371.657 186.02 385.297 172.16C407.297 149.5 418.297 136.08 418.297 131.9C418.297 129.48 416.977 128.27 414.337 128.27Z" fill="#3E5573"/><path d="M350.949 7.15988C350.949 7.81987 349.959 8.25987 347.979 8.47986C344.239 8.91987 341.599 9.35987 340.059 9.79987C328.619 12.4399 317.289 18.9299 306.069 29.2699C326.529 47.3099 336.759 70.6299 336.759 99.2299C336.759 103.85 336.319 108.25 335.439 112.43C328.839 146.09 310.909 174.36 281.649 197.24C253.489 219.24 214.219 230.02 163.839 229.58C146.239 229.36 125.449 227.6 101.469 224.3C84.3092 221.88 67.2592 219.46 50.3192 217.04C63.5192 250.26 92.0092 266.87 135.789 266.87C149.649 266.87 161.639 263.46 171.759 256.64C175.279 254.22 177.149 253.12 177.369 253.34C178.909 254.44 178.139 256.31 175.059 258.95C165.599 267.09 151.959 271.16 134.139 271.16C89.4792 271.16 59.7792 253.67 45.0392 218.69C34.9192 221.77 25.5692 223.75 16.9892 224.63C13.4692 224.85 10.3892 224.41 7.7492 223.31C4.8892 222.43 3.5692 221.11 3.7892 219.35C3.7892 213.85 9.8392 210.44 21.9392 209.12C28.7592 208.46 35.4692 208.79 42.0692 210.11C38.5492 198.89 36.7892 186.24 36.7892 172.16C36.7892 123.98 57.3592 83.0599 98.4992 49.3999C135.679 19.0399 177.369 3.85986 223.569 3.85986C255.689 3.85986 281.429 10.8999 300.789 24.9799C313.769 14.8599 326.089 8.69987 337.749 6.49987C341.489 5.83987 344.569 5.50986 346.989 5.50986C349.849 5.50986 351.169 6.05987 350.949 7.15988ZM321.249 106.16C322.349 99.9999 322.899 93.8399 322.899 87.6799C322.899 65.2399 315.969 46.7599 302.109 32.2399C287.589 44.5599 272.079 60.6199 255.579 80.4199C243.479 94.9399 231.489 109.46 219.609 123.98C190.349 156.98 161.859 180.63 134.139 194.93C113.019 205.93 90.5792 212.2 66.8192 213.74C100.039 220.56 132.489 223.97 164.169 223.97C208.169 223.97 244.799 210.44 274.059 183.38C300.459 158.74 316.189 133 321.249 106.16ZM296.829 27.9499C280.769 15.6299 258.549 9.46987 230.169 9.46987C186.169 9.46987 144.919 25.4199 106.419 57.3199C64.1792 92.2999 43.0592 131.46 43.0592 174.8C43.0592 188.44 44.8192 200.43 48.3392 210.77C75.1792 209.89 99.5992 202.74 121.599 189.32C142.499 176.78 167.689 154.56 197.169 122.66C240.289 76.2399 273.509 44.6699 296.829 27.9499Z" fill="#3E5573"/><path d="M560.349 124.97C560.349 124.53 559.469 124.31 557.71 124.31C550.89 124.31 545.72 125.41 542.2 127.61L539.311 129.937C525.067 141.448 513.82 151.122 505.57 158.96C488.63 174.58 472.24 188.77 456.4 201.53C442.54 212.53 432.75 218.03 427.03 218.03L426.671 218.019C425.046 217.91 424.18 217.044 424.071 215.42L424.06 215.06C424.061 211.966 428.121 205.488 436.242 195.627L437.92 193.61C454.2 174.03 477.74 151.81 508.54 126.95C500.84 126.51 494.13 127.83 488.41 130.91L486.841 131.81C470.617 141.234 453.979 154.684 436.93 172.16C434.092 175.116 431.51 177.982 429.181 180.754C425.33 184.121 421.795 187.177 418.571 189.918C422.573 183.755 427.988 177.142 434.765 170.082L434.774 170.073L434.783 170.065C452.523 151.882 469.903 137.934 486.932 128.299L486.96 128.283L486.987 128.269C493.28 124.88 500.562 123.489 508.711 123.955L516.477 124.398L510.425 129.284C479.704 154.08 456.33 176.16 440.226 195.528L440.217 195.54C435.631 200.999 432.257 205.428 430.045 208.851C428.938 210.563 428.161 211.965 427.67 213.076C427.179 214.185 427.071 214.794 427.061 215.028C429.115 215.018 432.416 213.973 437.193 211.289C441.894 208.648 447.668 204.63 454.535 199.18C470.311 186.47 486.645 172.33 503.536 156.755C512.42 148.318 524.692 137.819 540.322 125.271L540.46 125.16L540.61 125.066C544.823 122.434 550.652 121.31 557.71 121.31C558.651 121.31 559.611 121.363 560.418 121.564C560.806 121.662 561.414 121.853 561.985 122.281C562.641 122.773 563.349 123.681 563.349 124.97C563.349 125.789 563.025 126.38 562.905 126.585C562.749 126.853 562.579 127.062 562.464 127.193C562.229 127.462 561.959 127.707 561.724 127.908C561.238 128.325 560.576 128.826 559.784 129.392L559.66 129.479L559.528 129.555C556.791 131.119 552.725 134.416 547.248 139.674L547.221 139.699C533.445 152.6 514.256 172.444 489.63 199.269L489.626 199.272C471.62 218.816 461.438 229.774 459.182 232.031C444.819 246.833 431.087 259.35 417.984 269.565L417.981 269.568C375.174 302.839 333.493 319.385 293 318.71V318.709C276.326 318.482 261.937 314.874 249.961 307.742C237.229 300.335 229.36 290.089 226.748 277.028V277.027C226.178 274.283 225.944 271.786 226.332 269.769C226.533 268.725 226.931 267.64 227.694 266.724C228.452 265.815 229.442 265.225 230.55 264.962C231.654 264.627 232.818 264.8 233.788 265.446C234.667 266.032 235.191 266.873 235.509 267.509C236.154 268.8 236.593 270.583 236.931 272.598C238.949 283.056 245.157 291.497 255.96 297.942C265.787 303.581 277.592 306.672 291.479 307.101C323.468 307.954 359.304 292.811 399.083 260.9L399.086 260.897C412.181 250.421 426.952 237.076 443.403 220.845L443.404 220.843C444.801 219.467 446.157 218.118 447.477 216.801C444.766 218.588 442.221 220.129 439.839 221.413C434.093 224.511 428.993 226.31 424.72 226.31C420.491 226.31 416.759 225.381 414.068 222.998C411.308 220.553 410.17 217.053 410.17 213.08C410.17 209.034 411.15 204.758 413.007 200.275C414.856 198.751 416.731 197.19 418.637 195.594C414.992 202.081 413.17 207.909 413.17 213.08L413.182 213.709C413.414 220.11 417.26 223.309 424.72 223.31C431.76 223.31 442.98 217.26 458.38 205.16C461.24 202.96 467.62 197.46 477.52 188.66C471.14 196.8 460.47 208.24 445.51 222.98C429.01 239.26 414.16 252.68 400.96 263.24C361.545 294.858 325.542 310.488 292.949 310.129L291.4 310.1C277.547 309.673 265.552 306.667 255.415 301.079L254.44 300.53C243 293.71 236.18 284.58 233.98 273.14C233.32 269.18 232.44 267.42 231.34 267.86C229.14 268.301 228.59 271.161 229.69 276.44C232.11 288.54 239.37 298.11 251.47 305.15C262.91 311.97 276.77 315.49 293.05 315.71C332.031 316.36 372.398 300.701 414.15 268.734L416.14 267.2C429.12 257.08 442.76 244.65 457.06 229.91C458.711 228.26 464.815 221.722 475.375 210.296L487.42 197.24C512.06 170.4 531.31 150.49 545.17 137.51C550.67 132.23 554.96 128.71 558.04 126.95C559.58 125.85 560.349 125.19 560.349 124.97Z" fill="#FFFDF6"/><path d="M415.297 131.9C415.297 131.63 415.265 131.468 415.243 131.386C415.131 131.343 414.865 131.27 414.337 131.27C412.352 131.27 409.522 132.01 405.717 133.841C401.958 135.649 397.473 138.408 392.247 142.172C381.797 149.698 368.63 161.056 352.723 176.306L352.721 176.308C342.655 185.935 335.202 194.053 330.286 200.678C325.256 207.458 323.287 212.155 323.287 215.06C323.287 215.231 323.305 215.342 323.321 215.405C323.336 215.465 323.351 215.49 323.354 215.496C323.358 215.502 323.366 215.516 323.394 215.54C323.409 215.554 323.436 215.574 323.475 215.6C323.594 215.615 323.981 215.645 324.784 215.458C325.834 215.214 327.261 214.682 329.107 213.771C332.791 211.956 337.72 208.852 343.938 204.38L345.119 203.519C357.352 194.541 370.032 183.393 383.158 170.056C394.132 158.753 402.309 149.808 407.727 143.198C410.441 139.886 412.413 137.221 413.69 135.178C414.329 134.156 414.758 133.346 415.019 132.73C415.298 132.07 415.297 131.836 415.297 131.9ZM439.458 125.094C443.673 123.615 448.393 123.163 453.548 123.632L460.417 124.257L455.277 128.855C426.067 154.991 403.857 177.21 388.591 195.53L388.584 195.54C383.998 201 380.623 205.428 378.411 208.851C377.305 210.563 376.528 211.965 376.037 213.076C375.553 214.172 375.44 214.779 375.429 215.02C375.466 215.033 375.602 215.075 375.891 215.076C376.261 215.078 376.8 215.014 377.541 214.819C379.037 214.426 381.044 213.582 383.61 212.18C388.728 209.384 395.588 204.636 404.234 197.85C411.417 192.19 421.802 183.338 435.412 171.265C436.402 170.293 437.786 169.231 439.497 169.088C439.661 169.074 439.821 169.07 439.977 169.072C438.961 170.087 437.944 171.116 436.926 172.16C434.088 175.116 431.506 177.982 429.177 180.754C419.5 189.217 411.805 195.705 406.087 200.21L404.477 201.466C388.046 214.207 377.912 219.618 374.076 217.7C373.045 217.288 372.497 216.488 372.433 215.303L372.427 215.06C372.427 211.966 376.488 205.488 384.608 195.627L386.287 193.61C401.687 175.13 424.016 152.8 453.276 126.62C448.436 126.18 444.146 126.62 440.406 127.94C435.786 129.481 426.546 135.971 412.687 147.41C419.294 141.016 422.7 135.551 422.906 131.016L422.917 130.58C422.917 125.891 419.613 123.474 413.006 123.327L412.356 123.32C402.896 123.32 390.466 127.61 375.066 136.19C359.887 144.77 346.687 154.78 335.467 166.22L333.883 167.863C317.779 184.78 309.727 199.632 309.727 212.42C309.727 219.68 313.467 223.309 320.946 223.31C330.406 223.31 346.247 213.96 368.467 195.26C364.067 201.86 361.866 207.58 361.866 212.42C361.866 219.453 365.583 223.08 373.016 223.3L373.747 223.31C381.007 223.309 392.777 216.71 409.057 203.51C412.166 200.979 415.357 198.339 418.633 195.594C417.369 197.843 416.324 200.013 415.499 202.104C413.963 203.372 412.448 204.618 410.95 205.837L410.946 205.84C402.738 212.495 395.578 217.561 389.486 220.977C383.478 224.346 378.166 226.309 373.747 226.31C369.386 226.31 365.556 225.316 362.81 222.799C360.014 220.236 358.866 216.583 358.866 212.42C358.866 210.4 359.189 208.304 359.807 206.136C353.002 211.417 346.881 215.673 341.446 218.881C333.426 223.615 326.517 226.31 320.946 226.31C316.766 226.31 313.076 225.296 310.442 222.74C307.792 220.168 306.727 216.535 306.727 212.42C306.727 197.991 316.034 181.854 333.318 164.126L333.325 164.119C344.758 152.462 358.188 142.284 373.591 133.578L373.599 133.574L373.606 133.569C389.128 124.921 402.111 120.32 412.356 120.32C416.127 120.32 419.487 120.951 421.977 122.663C424.669 124.514 425.917 127.325 425.917 130.58C425.917 131.529 425.808 132.484 425.602 133.441C426.535 132.757 427.429 132.111 428.287 131.508C432.626 128.46 436.218 126.3 438.928 125.282L439.458 125.094ZM418.289 132.103C417.951 136.501 406.953 149.854 385.297 172.16L384.02 173.452C370.832 186.739 358.058 197.858 345.696 206.81C333.156 215.829 325.347 219.68 322.267 218.36C321.029 217.742 320.371 216.736 320.294 215.344L320.287 215.06C320.287 207.14 330.407 193.499 350.646 174.14C382.546 143.56 403.777 128.27 414.337 128.27L414.816 128.284C417.137 128.426 418.297 129.632 418.297 131.9L418.289 132.103Z" fill="#FFFDF6"/><path d="M336.764 99.2305C336.764 70.6305 326.534 47.3095 306.074 29.2695C317.294 18.9299 328.624 12.4398 340.064 9.7998C341.604 9.35983 344.244 8.92046 347.984 8.48047C349.84 8.27423 350.827 7.87419 350.943 7.28125L350.954 7.16016C351.161 6.12885 350.013 5.58102 347.512 5.5166L346.994 5.50977C344.574 5.50977 341.494 5.84001 337.754 6.5C326.094 8.7 313.774 14.8605 300.794 24.9805L299.882 24.3252C280.934 10.8983 255.998 4.07842 225.075 3.86523L223.574 3.86035C177.374 3.86035 135.684 19.0404 98.5042 49.4004C57.3643 83.0604 36.7942 123.98 36.7942 172.16L36.7991 173.476C36.9056 187.029 38.6645 199.241 42.0745 210.11C35.4745 208.79 28.7636 208.46 21.9436 209.12C9.84421 210.44 3.7945 213.85 3.79422 219.35C3.57422 221.11 4.89419 222.43 7.75418 223.31C10.2292 224.341 13.0907 224.792 16.3391 224.663L16.9944 224.63C25.5743 223.75 34.9244 221.77 45.0442 218.69C59.554 253.124 88.5599 270.609 132.062 271.147L134.144 271.16C151.964 271.16 165.604 267.09 175.064 258.95C178.144 256.31 178.914 254.44 177.374 253.34C177.154 253.12 175.284 254.22 171.764 256.64C161.644 263.46 149.654 266.87 135.794 266.87V263.87C148.723 263.87 159.814 260.796 169.186 254.747L170.087 254.152C171.851 252.94 173.261 252.017 174.285 251.414C174.784 251.121 175.286 250.846 175.736 250.657C175.942 250.57 176.291 250.435 176.7 250.363C176.905 250.328 177.264 250.283 177.698 250.339C178.085 250.389 178.698 250.545 179.273 251.018C180.03 251.6 180.709 252.433 181 253.557C181.305 254.731 181.087 255.832 180.726 256.71C180.056 258.337 178.624 259.85 177.017 261.228L177.016 261.227C166.819 269.998 152.377 274.16 134.144 274.16C111.434 274.16 92.2804 269.714 76.8518 260.628C62.1018 251.942 50.9435 239.124 43.3548 222.318C34.0595 225.013 25.3726 226.786 17.3001 227.614L17.2405 227.62L17.1809 227.624C13.3637 227.863 9.85546 227.404 6.73855 226.134C5.14196 225.629 3.62004 224.904 2.49734 223.781C1.27024 222.554 0.637156 220.956 0.798123 219.185C0.861021 215.139 3.2286 212.1 6.85867 210.054C10.4092 208.053 15.4235 206.814 21.6184 206.138L21.6555 206.134C27.1254 205.604 32.5346 205.688 37.8792 206.382C35.1465 196.02 33.7942 184.606 33.7942 172.16C33.7942 122.98 54.85 81.2411 96.6048 47.0781L96.6067 47.0762C134.3 16.2973 176.654 0.860352 223.574 0.860352C255.13 0.860412 280.932 7.56744 300.724 21.2529C313.311 11.7398 325.472 5.7642 337.198 3.55176L337.233 3.5459C341.06 2.87055 344.33 2.50977 346.994 2.50977C348.504 2.50978 350.048 2.63915 351.283 3.15332C351.929 3.42267 352.745 3.90221 353.326 4.77441C353.901 5.63614 354.054 6.59156 353.942 7.46191C353.793 9.42628 352.208 10.3808 351.43 10.7266C350.509 11.1358 349.401 11.3414 348.316 11.4619L348.315 11.4609C344.59 11.8996 342.17 12.3182 340.888 12.6846L340.814 12.7061L340.739 12.7236C330.739 15.0312 320.674 20.4896 310.549 29.291C330.028 47.6079 339.764 70.9965 339.764 99.2305C339.764 104.041 339.306 108.649 338.38 113.048C331.623 147.459 313.268 176.328 283.502 199.604L283.501 199.604C254.626 222.164 214.603 233.024 163.818 232.58H163.807C146.046 232.358 125.126 230.584 101.065 227.272L101.055 227.271C85.6828 225.103 70.3991 222.933 55.2034 220.765C61.5911 234.388 70.892 244.702 83.1028 251.821C96.7626 259.785 114.267 263.87 135.794 263.87V266.87L133.753 266.857C91.1276 266.347 63.3183 249.741 50.3245 217.04C67.2643 219.46 84.3141 221.88 101.474 224.3C125.454 227.6 146.244 229.36 163.844 229.58C213.437 230.013 252.264 219.574 280.325 198.263L281.655 197.24C310.914 174.36 328.844 146.09 335.444 112.43C336.269 108.511 336.707 104.399 336.759 100.094L336.764 99.2305ZM319.905 87.6797C319.905 66.9916 313.854 49.9716 301.867 36.4062C288.143 48.3273 273.483 63.6283 257.889 82.3408C245.795 96.8539 233.81 111.367 221.936 125.88L221.899 125.926L221.859 125.971C192.45 159.138 163.68 183.065 135.529 197.59L135.53 197.591C119.92 205.721 103.594 211.31 86.5628 214.362C112.944 218.767 138.814 220.97 164.174 220.97V223.97L161.201 223.96C130.465 223.753 99.0061 220.347 66.8245 213.74C90.5843 212.2 113.024 205.93 134.144 194.93C161.431 180.853 189.464 157.717 218.243 125.521L219.615 123.98C230.01 111.275 240.489 98.5702 251.052 85.8652L255.584 80.4199C272.084 60.62 287.595 44.5602 302.115 32.2402C315.974 46.7601 322.905 65.24 322.905 87.6797L322.898 88.835C322.833 94.61 322.285 100.385 321.254 106.16C316.194 133 300.464 158.74 274.064 183.38C244.804 210.44 208.174 223.97 164.174 223.97V220.97C207.499 220.97 243.372 207.673 272.017 181.187C298.099 156.843 313.397 131.642 318.306 105.604C319.372 99.6252 319.905 93.6507 319.905 87.6797ZM231.5 9.47461C259.247 9.66416 281.025 15.8228 296.834 27.9502C273.514 44.6702 240.294 76.2402 197.174 122.66C167.694 154.56 142.504 176.78 121.604 189.32L120.571 189.944C98.84 202.962 74.7645 209.903 48.344 210.77C44.8241 200.43 43.0637 188.44 43.0637 174.8C43.0638 132.137 63.5292 93.5248 104.459 58.9629L106.424 57.3203C144.924 25.4203 186.174 9.46973 230.174 9.46973L231.5 9.47461ZM46.0637 174.8C46.0637 187.25 47.5591 198.198 50.4954 207.682C75.9538 206.502 99.118 199.523 120.042 186.759L120.051 186.753L120.061 186.747C140.597 174.425 165.559 152.451 194.971 120.624L194.976 120.618C236.103 76.3438 268.375 45.4072 291.731 27.9678C276.64 17.7355 256.218 12.4697 230.174 12.4697C186.968 12.4697 146.378 28.1115 108.338 59.6299L108.337 59.6309C66.5874 94.205 46.0638 132.583 46.0637 174.8Z" fill="#FFFDF6"/></svg>